<svg width="27" height="27" viewBox="0 0 27 27" fill="none" xmlns="http://www.w3.org/2000/svg">
<path d="M7.37891 10.5315L13.1206 13.8573L18.8189 10.5532" stroke="#B9B9B9" stroke-width="1.5" stroke-linecap="round" stroke-linejoin="round"/>
<path d="M13.1211 19.7506V13.8464" stroke="#B9B9B9" stroke-width="1.5" stroke-linecap="round" stroke-linejoin="round"/>
<path d="M11.7756 7.31409L8.30891 9.24242C7.52891 9.67576 6.87891 10.7699 6.87891 11.6691V15.3416C6.87891 16.2408 7.51808 17.3349 8.30891 17.7683L11.7756 19.6966C12.5123 20.1083 13.7256 20.1083 14.4731 19.6966L17.9398 17.7683C18.7198 17.3349 19.3697 16.2408 19.3697 15.3416V11.6583C19.3697 10.7591 18.7306 9.66492 17.9398 9.23159L14.4731 7.30326C13.7256 6.89159 12.5123 6.89159 11.7756 7.31409Z" stroke="#B9B9B9" stroke-width="1.5" stroke-linecap="round" stroke-linejoin="round"/>
<path d="M23.9505 16.75C23.9505 20.9425 20.5597 24.3333 16.3672 24.3333L17.5047 22.4375" stroke="#B9B9B9" stroke-width="1.5" stroke-linecap="round" stroke-linejoin="round"/>
<path d="M2.28516 10.2501C2.28516 6.05758 5.67599 2.66675 9.86849 2.66675L8.731 4.56258" stroke="#B9B9B9" stroke-width="1.5" stroke-linecap="round" stroke-linejoin="round"/>
</svg>
