<svg width="27" height="25" viewBox="0 0 27 25" fill="none" xmlns="http://www.w3.org/2000/svg">
<path d="M13.1168 14.5H14.2001C15.3918 14.5 16.3668 13.6 16.3668 12.5V2.5H6.61676C4.99176 2.5 3.5726 3.32999 2.83594 4.54999" stroke="#B9B9B9" stroke-width="1.5" stroke-linecap="round" stroke-linejoin="round"/>
<path d="M2.28516 17.5C2.28516 19.16 3.73682 20.5 5.53516 20.5H6.61849C6.61849 19.4 7.59349 18.5 8.78516 18.5C9.97682 18.5 10.9518 19.4 10.9518 20.5H15.2852C15.2852 19.4 16.2602 18.5 17.4518 18.5C18.6435 18.5 19.6185 19.4 19.6185 20.5H20.7018C22.5002 20.5 23.9518 19.16 23.9518 17.5V14.5H20.7018C20.106 14.5 19.6185 14.05 19.6185 13.5V10.5C19.6185 9.95 20.106 9.5 20.7018 9.5H22.0993L20.2468 6.51001C19.8568 5.89001 19.1419 5.5 18.3619 5.5H16.3685V12.5C16.3685 13.6 15.3935 14.5 14.2018 14.5H13.1185" stroke="#B9B9B9" stroke-width="1.5" stroke-linecap="round" stroke-linejoin="round"/>
<path d="M8.78385 22.5C9.98047 22.5 10.9505 21.6046 10.9505 20.5C10.9505 19.3954 9.98047 18.5 8.78385 18.5C7.58724 18.5 6.61719 19.3954 6.61719 20.5C6.61719 21.6046 7.58724 22.5 8.78385 22.5Z" stroke="#B9B9B9" stroke-width="1.5" stroke-linecap="round" stroke-linejoin="round"/>
<path d="M17.4518 22.5C18.6484 22.5 19.6185 21.6046 19.6185 20.5C19.6185 19.3954 18.6484 18.5 17.4518 18.5C16.2552 18.5 15.2852 19.3954 15.2852 20.5C15.2852 21.6046 16.2552 22.5 17.4518 22.5Z" stroke="#B9B9B9" stroke-width="1.5" stroke-linecap="round" stroke-linejoin="round"/>
<path d="M23.9505 12.5V14.5H20.7005C20.1047 14.5 19.6172 14.05 19.6172 13.5V10.5C19.6172 9.95 20.1047 9.5 20.7005 9.5H22.098L23.9505 12.5Z" stroke="#B9B9B9" stroke-width="1.5" stroke-linecap="round" stroke-linejoin="round"/>
<path d="M2.28516 8.5H8.78516" stroke="#B9B9B9" stroke-width="1.5" stroke-linecap="round" stroke-linejoin="round"/>
<path d="M2.28516 11.5H6.61849" stroke="#B9B9B9" stroke-width="1.5" stroke-linecap="round" stroke-linejoin="round"/>
<path d="M2.28516 14.5H4.45182" stroke="#B9B9B9" stroke-width="1.5" stroke-linecap="round" stroke-linejoin="round"/>
</svg>
