<svg width="85" height="90" viewBox="0 0 85 90" fill="fff" xmlns="http://www.w3.org/2000/svg">
<path d="M0 1.09265H13.8469V4.05431H8.51005V20.7029H5.33681V4.05431H0V1.09265Z" fill="#000000"/>
<path d="M19.8014 20.7029H16.6282V0H19.8014V8.39617H20.1187C20.8111 6.92971 22.0515 6.00958 23.8401 6.00958H23.9555C26.6383 6.00958 28.398 7.99361 28.398 11.5304V20.7029H25.1959V11.7604C25.1959 9.80511 24.3305 8.97125 22.9458 8.97125H22.8304C20.8399 8.97125 19.8014 10.3227 19.8014 12.4505V20.7029Z" fill="#000000"/>
<path d="M44.2263 12.5942V14.3482H35.1105V14.4345C35.1105 17.2812 35.9759 18.2588 38.1107 18.2588H38.2837C39.7261 18.2588 40.6492 17.7125 40.9089 16.361H44.0821C43.6205 19.3227 41.3704 20.9904 38.3703 20.9904H38.1107C34.4759 20.9904 32.0527 18.8051 32.0527 14.4345V12.5942C32.0527 8.22364 34.447 6.00958 38.053 6.00958H38.226C41.8032 6.00958 44.2263 8.22364 44.2263 12.5942ZM38.226 8.76997H38.053C36.0913 8.76997 35.2259 9.60383 35.1105 12.1054H41.1685C41.0531 9.60383 40.1588 8.76997 38.226 8.76997Z" fill="#000000"/>
<path d="M8.01964 55.4952H7.84656C3.92328 55.4952 1.15391 53.1086 1.15391 48.3067V42.4984C1.15391 37.6965 3.92328 35.3099 7.84656 35.3099H8.01964C11.9429 35.3099 14.7123 37.6965 14.7123 42.4984H11.5102C11.5102 39.2204 10.414 38.1853 8.01964 38.1853H7.84656C5.4522 38.1853 4.35599 39.2204 4.35599 42.4984V48.3067C4.35599 51.5847 5.4522 52.6198 7.84656 52.6198H8.01964C10.414 52.6198 11.5102 51.5847 11.5102 48.3067H14.7123C14.7123 53.1086 11.9429 55.4952 8.01964 55.4952Z" fill="#000000"/>
<path d="M24.2248 55.4952H24.0517C20.4746 55.4952 18.0514 53.3099 18.0514 48.9393V47.099C18.0514 42.7284 20.4458 40.5144 24.0517 40.5144H24.2248C27.8019 40.5144 30.2251 42.7284 30.2251 47.099V48.9393C30.2251 53.3099 27.8019 55.4952 24.2248 55.4952ZM24.0517 52.6773H24.2248C26.2441 52.6773 27.1096 51.7284 27.1096 48.9393V47.099C27.1096 44.2812 26.2441 43.361 24.2248 43.361H24.0517C22.0035 43.361 21.167 44.2812 21.167 47.099V48.9393C21.167 51.7284 22.0035 52.6773 24.0517 52.6773Z" fill="#000000"/>
<path d="M37.0987 55.2077H33.9255V40.8019H37.0987V42.1821H37.4449C37.9353 41.3195 38.8296 40.8019 40.1277 40.8019H42.3202V43.6486H38.368C37.3584 43.6486 37.0987 43.9073 37.0987 44.885V55.2077Z" fill="#000000"/>
<path d="M48.48 55.2077H45.3068V40.8019H48.48V42.901H48.7973C49.4897 41.4345 50.7301 40.5144 52.5187 40.5144H52.6341C55.3169 40.5144 57.0766 42.4984 57.0766 46.0351V55.2077H53.8745V46.2652C53.8745 44.3099 53.0091 43.476 51.6244 43.476H51.509C49.5185 43.476 48.48 44.8275 48.48 46.9553V55.2077Z" fill="#000000"/>
<path d="M72.905 47.099V48.853H63.7891V48.9393C63.7891 51.7859 64.6545 52.7636 66.7893 52.7636H66.9623C68.4047 52.7636 69.3278 52.2173 69.5875 50.8658H72.7607C72.2992 53.8275 70.049 55.4952 67.0489 55.4952H66.7893C63.1545 55.4952 60.7313 53.3099 60.7313 48.9393V47.099C60.7313 42.7284 63.1256 40.5144 66.7316 40.5144H66.9046C70.4818 40.5144 72.905 42.7284 72.905 47.099ZM66.9046 43.2748H66.7316C64.7699 43.2748 63.9045 44.1086 63.7891 46.6102H69.8471C69.7317 44.1086 68.8374 43.2748 66.9046 43.2748Z" fill="#000000"/>
<path d="M79.7786 55.2077H76.6053V40.8019H79.7786V42.1821H80.1247C80.6152 41.3195 81.5094 40.8019 82.8076 40.8019H85V43.6486H81.0479C80.0382 43.6486 79.7786 43.9073 79.7786 44.885V55.2077Z" fill="#000000"/>
<path d="M7.58693 90H7.41384C3.37517 90 0.6058 88.0447 0.6058 83.6741H3.77904C3.77904 86.377 4.9041 87.1246 7.41384 87.1246H7.58693C9.98128 87.1246 11.0775 86.4058 11.0775 84.4505C11.0775 82.1502 8.33697 81.6326 6.23109 80.9137C2.82707 79.7636 0.923124 78.2396 0.951972 75.1054C1.00967 71.6262 3.6348 69.8147 7.03882 69.8147H7.21191C11.1063 69.8147 13.7892 71.77 13.7892 76.1693H10.6159C10.6159 73.4377 9.57741 72.6901 7.21191 72.6901H7.03882C5.16373 72.6901 4.18291 73.4377 4.18291 75.1054C4.18291 77.0895 5.91377 77.6933 7.8754 78.2971C11.4814 79.4185 14.2507 80.7987 14.2507 84.4505C14.2507 88.1885 11.5391 90 7.58693 90Z" fill="#000000"/>
<path d="M22.9221 86.8946H25.8935V89.7125H22.9221C20.3259 89.7125 18.8258 88.016 18.8258 85.6294V78.1534H16.2007V75.3067H18.8258V72.0575L21.999 71.7987V75.3067H25.8069V78.1534H21.999V85.9744C21.999 86.6645 22.1721 86.8946 22.9221 86.8946Z" fill="#000000"/>
<path d="M34.7609 90H34.5879C31.0108 90 28.5876 87.8147 28.5876 83.4441V81.6038C28.5876 77.2332 30.9819 75.0192 34.5879 75.0192H34.7609C38.3381 75.0192 40.7613 77.2332 40.7613 81.6038V83.4441C40.7613 87.8147 38.3381 90 34.7609 90ZM34.5879 87.1821H34.7609C36.7803 87.1821 37.6457 86.2332 37.6457 83.4441V81.6038C37.6457 78.7859 36.7803 77.8658 34.7609 77.8658H34.5879C32.5397 77.8658 31.7031 78.7859 31.7031 81.6038V83.4441C31.7031 86.2332 32.5397 87.1821 34.5879 87.1821Z" fill="#000000"/>
<path d="M47.6349 89.7125H44.4616V75.3067H47.6349V76.6869H47.981C48.4715 75.8243 49.3657 75.3067 50.6639 75.3067H52.8563V78.1534H48.9042C47.8945 78.1534 47.6349 78.4121 47.6349 79.3898V89.7125Z" fill="#000000"/>
<path d="M67.0735 81.6038V83.3578H57.9576V83.4441C57.9576 86.2907 58.823 87.2684 60.9578 87.2684H61.1308C62.5732 87.2684 63.4963 86.722 63.756 85.3706H66.9292C66.4677 88.3323 64.2175 90 61.2174 90H60.9578C57.323 90 54.8997 87.8147 54.8997 83.4441V81.6038C54.8997 77.2332 57.2941 75.0192 60.9001 75.0192H61.0731C64.6503 75.0192 67.0735 77.2332 67.0735 81.6038ZM61.0731 77.7795H60.9001C58.9384 77.7795 58.073 78.6134 57.9576 81.115H64.0156C63.9002 78.6134 63.0059 77.7795 61.0731 77.7795Z" fill="#000000"/>
</svg>
